<svg xmlns="http://www.w3.org/2000/svg" width="16.493" height="11" viewBox="0 0 16.493 11">
    <path id="Icon_ionic-ios-arrow-round-back" fill="#000" d="M13.857 11.462a.749.749 0 0 1 .006 1.054l-3.477 3.489h13.25a.745.745 0 0 1 0 1.489H10.385l3.483 3.489a.754.754 0 0 1-.006 1.054.742.742 0 0 1-1.048-.006l-4.72-4.755a.836.836 0 0 1-.155-.235.711.711 0 0 1-.057-.286.747.747 0 0 1 .212-.521l4.72-4.755a.73.73 0 0 1 1.043-.017z" data-name="Icon ionic-ios-arrow-round-back" transform="translate(-7.882 -11.252)"/>
</svg>
