<?xml version="1.0" encoding="utf-8"?>
<!-- Generator: Adobe Illustrator 24.2.3, SVG Export Plug-In . SVG Version: 6.00 Build 0)  -->
<svg version="1.1" id="Layer_1" xmlns="http://www.w3.org/2000/svg" xmlns:xlink="http://www.w3.org/1999/xlink" x="0px" y="0px"
	 viewBox="0 0 100 100" style="enable-background:new 0 0 100 100;" xml:space="preserve">
<style type="text/css">
	.st0{fill:#FFDB92;}
	.st1{fill:url(#SVGID_1_);}
	.st2{fill:#C4B8AD;}
	.st3{fill:url(#SVGID_2_);}
	.st4{fill:url(#SVGID_3_);}
	.st5{fill:url(#SVGID_4_);}
	.st6{fill:url(#SVGID_5_);}
	.st7{fill:url(#SVGID_6_);}
	.st8{fill:#EFB745;}
	.st9{fill:url(#SVGID_7_);}
	.st10{fill:url(#SVGID_8_);}
	.st11{fill:#EFBE67;}
	.st12{fill:#B2A5A3;}
	.st13{fill:url(#SVGID_9_);}
	.st14{fill:url(#SVGID_10_);}
	.st15{fill:url(#SVGID_11_);}
	.st16{fill:url(#SVGID_12_);}
	.st17{fill:url(#SVGID_13_);}
	.st18{opacity:0.8;fill:#FFFFFF;}
	.st19{opacity:0.68;fill:#FFFFFF;}
	.st20{fill:#E5B24C;}
	.st21{fill:url(#SVGID_14_);}
	.st22{fill:#F2C679;}
	.st23{fill:#9E4102;}
	.st24{fill:url(#SVGID_15_);}
	.st25{fill:url(#SVGID_16_);}
	.st26{fill:#BC7331;}
</style>
<g>
	<g>
		<g>
			<g>
				<path class="st0" d="M50.81,64.35c-0.01,0.74-0.63,1.34-1.4,1.33l0,0c-0.76-0.01-1.38-0.62-1.37-1.36l0.37-37.35
					c0.01-0.74,0.63-1.34,1.4-1.33l0,0c0.76,0.01,1.38,0.62,1.37,1.36L50.81,64.35z"/>
				
					<linearGradient id="SVGID_1_" gradientUnits="userSpaceOnUse" x1="51.1988" y1="-14.7856" x2="52.7287" y2="-55.1748" gradientTransform="matrix(1.0997 0.0119 -0.0107 0.9899 -8.1346 79.7593)">
					<stop  offset="0" style="stop-color:#B56E08"/>
					<stop  offset="0.511" style="stop-color:#B56E08"/>
					<stop  offset="0.8901" style="stop-color:#9E6136"/>
				</linearGradient>
				<path class="st1" d="M50.58,64.44c-0.01,0.74-0.63,1.34-1.4,1.33l0,0c-0.76-0.01-1.38-0.62-1.37-1.36l0.37-37.35
					c0.01-0.74,0.63-1.34,1.4-1.33l0,0c0.76,0.01,1.38,0.62,1.37,1.36L50.58,64.44z"/>
			</g>
			<polygon class="st2" points="48.19,28.56 48.13,33.51 50.88,35.77 51.09,35.79 51.16,28.75 			"/>
		</g>
		<g>
			<path class="st0" d="M90.5,71.1c-0.43,0.45-1.01-0.01-1.44-0.44L28.95,9.52c-0.43-0.43-0.62-1.27-0.19-1.72l0.31-0.33
				c0.42-0.45,1.3-0.34,1.73,0.1l60.11,61.15c0.43,0.43,0.43,1.43-0.25,2.18L90.5,71.1z"/>
			
				<linearGradient id="SVGID_2_" gradientUnits="userSpaceOnUse" x1="236.6887" y1="1171.1095" x2="236.8367" y2="1167.2018" gradientTransform="matrix(0.7112 0.7001 -0.7715 0.7838 793.1485 -1042.6033)">
				<stop  offset="0" style="stop-color:#AB7A38"/>
				<stop  offset="0.3626" style="stop-color:#D99938"/>
				<stop  offset="0.8901" style="stop-color:#9E5E2E"/>
			</linearGradient>
			<path class="st3" d="M90.34,71.28c-0.39,0.43-1.07,0.41-1.52-0.05L28.72,9.71c-0.4-0.41-0.48-1.13-0.18-1.6l0.15-0.23
				c0.3-0.48,0.87-0.54,1.27-0.13l60.48,61.7c0.45,0.46,0.5,1.19,0.11,1.62L90.34,71.28z"/>
		</g>
		<g>
			
				<linearGradient id="SVGID_3_" gradientUnits="userSpaceOnUse" x1="57.9683" y1="-195.4475" x2="17.4767" y2="-183.7697" gradientTransform="matrix(0.9938 -0.1115 0.1115 0.9938 47.3098 250.0699)">
				<stop  offset="0" style="stop-color:#DEA659"/>
				<stop  offset="0.3626" style="stop-color:#D99938"/>
				<stop  offset="0.8901" style="stop-color:#9E5E2E"/>
			</linearGradient>
			<path class="st4" d="M88.16,48.56c0.78-0.2,1.51,0.26,1.7,1.02l0,0c0.19,0.76-0.08,1.93-0.67,2.1L41.06,64.99
				c-0.6,0.17-1.25,0.01-1.44-0.74l-0.07-0.08c-0.06-1.33,0.64-1.9,1.24-2.07L88.16,48.56z"/>
			
				<linearGradient id="SVGID_4_" gradientUnits="userSpaceOnUse" x1="2312.2588" y1="-282.3115" x2="2314.2515" y2="-334.9161" gradientTransform="matrix(-0.2987 -1.1254 0.9569 -0.2539 1050.9785 2582.3159)">
				<stop  offset="0" style="stop-color:#B56E08"/>
				<stop  offset="0.511" style="stop-color:#B56E08"/>
				<stop  offset="0.8901" style="stop-color:#9E4102"/>
			</linearGradient>
			<path class="st5" d="M88.37,49.1c0.59-0.17,1.23,0.3,1.42,1.06l0,0c0.19,0.76-0.15,1.51-0.74,1.68L40.99,65.58
				c-0.6,0.17-1.2-0.31-1.39-1.06l0-0.02c-0.19-0.76,0.12-1.5,0.71-1.67L88.37,49.1z"/>
		</g>
		
			<linearGradient id="SVGID_5_" gradientUnits="userSpaceOnUse" x1="1889.0885" y1="-1440.55" x2="1889.2964" y2="-1446.0369" gradientTransform="matrix(0.4646 -0.8855 0.8855 0.4646 483.7442 2423.0391)">
			<stop  offset="0" style="stop-color:#EBA633"/>
			<stop  offset="0.511" style="stop-color:#DBA359"/>
			<stop  offset="1" style="stop-color:#A87536"/>
		</linearGradient>
		<path class="st6" d="M87.23,67.97L77.1,88.84c0.52,1.1,1.37,1.93,2.35,2.31l10.03-21.12C88.95,69.05,88.15,68.31,87.23,67.97z"/>
		
			<linearGradient id="SVGID_6_" gradientUnits="userSpaceOnUse" x1="11.8222" y1="-173.3488" x2="-5.8167" y2="-171.5222" gradientTransform="matrix(0.9943 -0.1062 0.1062 0.9943 50.3326 242.0325)">
			<stop  offset="0" style="stop-color:#B56E08"/>
			<stop  offset="0.511" style="stop-color:#B56E08"/>
			<stop  offset="0.8901" style="stop-color:#9E4102"/>
		</linearGradient>
		<polygon class="st7" points="27.52,77.67 42.5,62.86 42.64,65.17 31.68,76.54 		"/>
		<polygon class="st8" points="28.1,77.08 42.5,62.86 40.48,63.48 26.06,77.45 		"/>
		
			<linearGradient id="SVGID_7_" gradientUnits="userSpaceOnUse" x1="21.4679" y1="-181.7856" x2="2.8251" y2="-179.855" gradientTransform="matrix(0.9938 -0.1115 0.1115 0.9938 47.3098 250.0699)">
			<stop  offset="0" style="stop-color:#B56E08"/>
			<stop  offset="0.511" style="stop-color:#B56E08"/>
			<stop  offset="0.8901" style="stop-color:#9E4102"/>
		</linearGradient>
		<polygon class="st9" points="31.34,76.89 47.09,61.15 47.26,63.59 35.73,75.67 		"/>
		<polygon class="st8" points="31.96,76.26 47.09,61.15 44.97,61.82 29.8,76.66 		"/>
		<path class="st2" d="M33.86,72.7l3.76-3.69l1.4,0.24l0.18,2.8l8.07-8.46l0.34-3.23c0,0-3.35,0.67-6.88,1.76
			c-0.11,0.03-0.56,0.21-0.8,0.59c-0.13,0.2-0.32,0.47-0.36,1.07c-0.01,0.17,0,0.33,0.01,0.58L33.75,70L33.86,72.7z"/>
		
			<linearGradient id="SVGID_8_" gradientUnits="userSpaceOnUse" x1="1603.2734" y1="-1298.064" x2="1590.382" y2="-1307.5175" gradientTransform="matrix(0.5141 -0.8578 0.8578 0.5141 380.7024 2097.4441)">
			<stop  offset="0" style="stop-color:#C98C21"/>
			<stop  offset="0.511" style="stop-color:#B58226"/>
			<stop  offset="0.8901" style="stop-color:#9E5E24"/>
		</linearGradient>
		<polygon class="st10" points="88.53,51.16 80.35,65.88 79.27,65.18 87.88,49.95 		"/>
		<path class="st11" d="M85.63,50.53l-8.7,15.53c0.44,0.87,0.92,0.3,1.85,0.37L87.87,50C87.24,49.98,86.39,50.35,85.63,50.53z"/>
		<g>
			<path class="st12" d="M14.16,18.11c1.13,1.63,9.56,18.5,11.19,21.36c1.64,2.86,10.57,21.63,25.03,25.57
				c1.89,0.68,11.7,3.44,18.37,2.76c1.38-1.5-4.61-1.63-4.61-1.63s-20.04-7.79-24.7-13.78c-4.65-5.98-22.26-32.24-23.39-34.01
				C14.91,16.62,14.16,18.11,14.16,18.11z"/>
			<g>
				
					<linearGradient id="SVGID_9_" gradientUnits="userSpaceOnUse" x1="-0.4152" y1="-225.1225" x2="69.4033" y2="-170.5744" gradientTransform="matrix(0.9938 -0.1115 0.1115 0.9938 47.3098 250.0699)">
					<stop  offset="0" style="stop-color:#D1D2D7"/>
					<stop  offset="0.511" style="stop-color:#F0F0F0"/>
					<stop  offset="0.5614" style="stop-color:#ECECED"/>
					<stop  offset="0.6084" style="stop-color:#E1E2E4"/>
					<stop  offset="0.6484" style="stop-color:#D1D2D7"/>
				</linearGradient>
				<path class="st13" d="M30.64,10.51c0.3,0.15,1.1,0.65,2.05,1.98c0.45,0.64,0.96,1.45,1.62,2.44c2.02,3.08,12.2,17.9,17.47,23.55
					C57.05,44.13,65.45,52,71.63,52.42c6.18,0.42,9.55-0.71,11.51-1.58c1.96-0.87,2.48-0.75,2.54-0.13
					c-0.71,1.34-8.97,16.18-8.97,16.18s-23.15,5.12-39.12-10.55c-7.64-7.5-21.99-36.37-22.66-37.09c-0.67-0.73-1.59-1.59-1.59-1.59
					L30.64,10.51z"/>
				<g>
					
						<linearGradient id="SVGID_10_" gradientUnits="userSpaceOnUse" x1="-0.7316" y1="-210.7361" x2="54.4685" y2="-210.7361" gradientTransform="matrix(0.9938 -0.1115 0.1115 0.9938 47.3098 250.0699)">
						<stop  offset="0" style="stop-color:#CC2215"/>
						<stop  offset="0.467" style="stop-color:#FA453D"/>
						<stop  offset="0.54" style="stop-color:#F03D35"/>
						<stop  offset="0.6646" style="stop-color:#D42921"/>
						<stop  offset="0.7747" style="stop-color:#B7130B"/>
						<stop  offset="0.8758" style="stop-color:#B9150C"/>
						<stop  offset="0.9245" style="stop-color:#C11B10"/>
						<stop  offset="0.9619" style="stop-color:#CE2617"/>
						<stop  offset="0.9934" style="stop-color:#E03520"/>
						<stop  offset="1" style="stop-color:#E53923"/>
					</linearGradient>
					<path class="st14" d="M21.87,16.71L21.87,16.71c0.02,0.02,0.09,0.13,0.16,0.25c0.07,0.11,19.17,35.96,35.56,42.41
						c8.76,3.45,18.86,1.09,21,1.04c0.09,0,0.5,0.02,0.62,0.14c0.02,0.02,0.47,0.37,0.7,0.62c0.29-0.52,0.54-1,0.84-1.54
						c-0.17-0.16-0.31-0.38-0.53-0.55c-0.24-0.19-0.55-0.33-0.78-0.31c-0.23,0.02-12.8,2.87-21.27-0.85
						c-16.42-7.21-34.65-41.8-34.7-41.89c-0.06-0.11-0.06-0.08-0.11-0.16c-0.05-0.08-1.24-1.5-1.55-1.83l-1.65,0.68
						C20.5,15.1,21.8,16.62,21.87,16.71z"/>
					
						<linearGradient id="SVGID_11_" gradientUnits="userSpaceOnUse" x1="-5.09" y1="-208.4844" x2="52.1766" y2="-208.4844" gradientTransform="matrix(0.9938 -0.1115 0.1115 0.9938 47.3098 250.0699)">
						<stop  offset="0" style="stop-color:#CC2215"/>
						<stop  offset="0.467" style="stop-color:#FA453D"/>
						<stop  offset="0.54" style="stop-color:#F03D35"/>
						<stop  offset="0.6646" style="stop-color:#D42921"/>
						<stop  offset="0.7747" style="stop-color:#B7130B"/>
						<stop  offset="0.8758" style="stop-color:#B9150C"/>
						<stop  offset="0.9245" style="stop-color:#C11B10"/>
						<stop  offset="0.9619" style="stop-color:#CE2617"/>
						<stop  offset="0.9934" style="stop-color:#E03520"/>
						<stop  offset="1" style="stop-color:#E53923"/>
					</linearGradient>
					<path class="st15" d="M17.78,18.31c0.2,0.28,0.53,0.85,0.67,1.12c0.73,1.42,19.27,37.34,35.16,43.02
						c12.69,4.53,21.2,1.26,23.09,1.36c0,0,0.67,0.14,0.61,0.18c0.09,0.01,0.39,0.37,0.59,0.56c0.02,0.02,0.05,0.05,0.08,0.07
						c0.27-0.49,0.52-0.95,0.85-1.54c-0.15-0.15-0.42-0.48-0.62-0.63c-0.25-0.19-0.39-0.27-0.62-0.27
						c-2.3-0.05-12.26,3.32-23.66-1.76c-13.32-5.93-33.21-40.45-33.62-41.25c-0.21-0.4-0.68-1.32-0.85-1.57
						c-0.08-0.12-1.28-1.28-1.79-1.8l-1.7,0.7C16.6,17.05,17.69,18.18,17.78,18.31z"/>
					
						<linearGradient id="SVGID_12_" gradientUnits="userSpaceOnUse" x1="3.6263" y1="-212.901" x2="56.6672" y2="-212.901" gradientTransform="matrix(0.9938 -0.1115 0.1115 0.9938 47.3098 250.0699)">
						<stop  offset="0" style="stop-color:#CC2215"/>
						<stop  offset="0.467" style="stop-color:#FA453D"/>
						<stop  offset="0.54" style="stop-color:#F03D35"/>
						<stop  offset="0.6646" style="stop-color:#D42921"/>
						<stop  offset="0.7747" style="stop-color:#B7130B"/>
						<stop  offset="0.8758" style="stop-color:#B9150C"/>
						<stop  offset="0.9245" style="stop-color:#C11B10"/>
						<stop  offset="0.9619" style="stop-color:#CE2617"/>
						<stop  offset="0.9934" style="stop-color:#E03520"/>
						<stop  offset="1" style="stop-color:#E53923"/>
					</linearGradient>
					<path class="st16" d="M25.59,14.69c0.09,0.12,0.16,0.22,0.22,0.29c0.06,0.08,0.09,0.12,0.12,0.16
						c0.04,0.05,0.07,0.08,0.09,0.09c0,0.01,0.01,0.02,0.02,0.03c0.33,0.58,16.1,30.1,32.14,40.02c4.02,2.48,9.1,3.67,22.4,1.75
						c0.04,0,0.41-0.05,0.57,0.11c0.17,0.12,0.26,0.23,0.42,0.4c0.06,0.07,0.14,0.15,0.22,0.25c0.29-0.52,0.53-0.96,0.81-1.46
						c-0.17-0.18-0.38-0.49-0.59-0.65c-0.22-0.17-0.38-0.26-0.61-0.24c-0.22,0.01-13.28,3.25-21.7-1.24
						c-15.34-8.17-31.81-39-32.28-39.81c-0.07-0.12-0.14-0.22-0.22-0.31c-0.02-0.02-0.04-0.04-0.05-0.05
						c-0.05-0.06-0.16-0.22-0.31-0.42c-0.24-0.32-0.57-0.77-0.9-1.22l-1.57,0.65c0.19,0.25,0.39,0.52,0.58,0.78
						C25.19,14.14,25.42,14.45,25.59,14.69z"/>
					
						<linearGradient id="SVGID_13_" gradientUnits="userSpaceOnUse" x1="7.465" y1="-215.0462" x2="58.8363" y2="-215.0462" gradientTransform="matrix(0.9938 -0.1115 0.1115 0.9938 47.3098 250.0699)">
						<stop  offset="0" style="stop-color:#CC2215"/>
						<stop  offset="0.467" style="stop-color:#FA453D"/>
						<stop  offset="0.54" style="stop-color:#F03D35"/>
						<stop  offset="0.6646" style="stop-color:#D42921"/>
						<stop  offset="0.7747" style="stop-color:#B7130B"/>
						<stop  offset="0.8758" style="stop-color:#B9150C"/>
						<stop  offset="0.9245" style="stop-color:#C11B10"/>
						<stop  offset="0.9619" style="stop-color:#CE2617"/>
						<stop  offset="0.9934" style="stop-color:#E03520"/>
						<stop  offset="1" style="stop-color:#E53923"/>
					</linearGradient>
					<path class="st17" d="M29.4,13.13c0.15,0.18,0.26,0.31,0.27,0.33c0.05,0.06,0.07,0.07,0.08,0.09c0.04,0.04,0.06,0.06,0.09,0.11
						c0.02,0.03,0.03,0.06,0.06,0.09c0.34,0.54,17.55,31.74,31.89,39.18c4.91,2.55,11.04,2.27,15.04,1.78
						c2.21-0.27,3.8-0.75,5.62-1.03c0,0,0.39-0.09,0.63,0.08c0.27,0.22,0.45,0.38,0.65,0.54c0.24-0.44,0.47-0.86,0.69-1.24
						c-0.17-0.14-0.41-0.39-0.62-0.56c-0.23-0.18-0.38-0.18-0.57-0.17c-0.19,0.01-3.71,0.87-6.43,1.21
						c-4.22,0.52-9.13,0.74-13.33-1.42c-15.18-7.8-30.27-35.82-31.08-37.07c-0.41-0.62-0.75-1.14-0.99-1.51
						c-0.12-0.19-0.22-0.34-0.29-0.45c-0.03-0.05-0.06-0.1-0.08-0.13c-0.01-0.02-0.02-0.03-0.02-0.04c0,0,0-0.01,0-0.01
						c-0.08-0.13-0.16-0.24-0.22-0.31c-0.03-0.04-0.06-0.06-0.08-0.08c0,0,0,0-0.01,0c-0.05-0.06-0.14-0.17-0.27-0.33
						c-0.26-0.31-0.66-0.79-1.02-1.23l-1.34,0.55c0.24,0.3,0.53,0.64,0.79,0.96C29.05,12.72,29.25,12.95,29.4,13.13z"/>
				</g>
				<path class="st18" d="M15.08,19.4l17.41-7.14c0,0-1.35-1.7-1.84-1.75c-2,0.74-17.3,7.14-17.3,7.14L15.08,19.4z"/>
				<path class="st19" d="M75.73,66.65l9.28-16.27c0,0,0.13-0.31-0.48,0.04c-0.6,0.34-9.37,16.19-9.37,16.19L75.73,66.65z"/>
			</g>
		</g>
		<g>
			<path class="st20" d="M78.87,64.61c0.88-0.18,1.68,0.37,1.86,1.23l0,0c0.18,0.86-0.17,2.16-0.85,2.32L25.31,80.67
				c-0.68,0.16-1.45-0.3-1.62-1.16l-0.01-0.09c-0.18-0.86,0.79-1.85,1.46-2.02L78.87,64.61z"/>
			
				<linearGradient id="SVGID_14_" gradientUnits="userSpaceOnUse" x1="1.3151" y1="-171.6233" x2="65.671" y2="-181.3946" gradientTransform="matrix(0.9938 -0.1115 0.1115 0.9938 47.3098 250.0699)">
				<stop  offset="0" style="stop-color:#D19108"/>
				<stop  offset="0.511" style="stop-color:#B56E08"/>
				<stop  offset="1" style="stop-color:#9E5E02"/>
			</linearGradient>
			<path class="st21" d="M79.08,65.22c0.68-0.16,1.37,0.41,1.55,1.27l0,0c0.18,0.86-0.23,1.69-0.91,1.85L25.21,81.33
				c-0.68,0.16-1.37-0.41-1.54-1.27l0,0c-0.18-0.86,0.23-1.69,0.91-1.85L79.08,65.22z"/>
		</g>
		<g>
			<polygon class="st22" points="31.27,9.82 12.81,17.35 11.19,15.61 29.51,8.34 			"/>
			<polygon class="st23" points="31.25,9.8 12.43,17.48 12.56,17.94 31.32,10.23 			"/>
		</g>
		<polygon class="st2" points="34.17,79.2 29.78,80.23 30,76.06 27.99,75.6 30.87,72.85 33.85,72.52 		"/>
		<polygon class="st2" points="81.09,63.36 82.91,60.59 84.45,62.15 83.84,62.72 82.76,65.03 		"/>
		<polygon class="st2" points="61.84,72.59 58.31,69.51 53.46,70.66 55.1,70.99 57.17,73.7 		"/>
		<g>
			<path class="st0" d="M80.65,92.23c-0.49,0.54-1.16-0.01-1.66-0.54L9.49,17.7c-0.5-0.53-0.72-1.53-0.23-2.07l0.35-0.39
				c0.49-0.54,1.5-0.4,1.99,0.12l69.5,73.99c0.5,0.53,0.5,1.73-0.27,2.62L80.65,92.23z"/>
			
				<linearGradient id="SVGID_15_" gradientUnits="userSpaceOnUse" x1="236.4148" y1="1189.2124" x2="236.511" y2="1186.6729" gradientTransform="matrix(0.7112 0.7001 -0.7715 0.7838 793.1485 -1042.6033)">
				<stop  offset="0" style="stop-color:#CF9459"/>
				<stop  offset="0.3626" style="stop-color:#D99938"/>
				<stop  offset="0.8901" style="stop-color:#9E5E2E"/>
			</linearGradient>
			<path class="st24" d="M80.47,92.44c-0.45,0.52-1.23,0.48-1.75-0.07L9.22,17.94C8.76,17.44,8.66,16.58,9,16l0.17-0.28
				c0.34-0.57,1-0.64,1.46-0.14l69.93,74.66c0.52,0.56,0.58,1.43,0.13,1.95L80.47,92.44z"/>
		</g>
		<g>
			<path class="st0" d="M34.01,77.02c0.03,0.74-0.57,1.37-1.33,1.41l0,0c-0.76,0.03-1.41-0.54-1.43-1.28l-1.43-37.31
				c-0.03-0.74,0.57-1.37,1.33-1.41l0,0c0.76-0.03,1.4,0.54,1.43,1.28L34.01,77.02z"/>
			
				<linearGradient id="SVGID_16_" gradientUnits="userSpaceOnUse" x1="68.1473" y1="-88.4702" x2="69.6773" y2="-128.8591" gradientTransform="matrix(1.0988 -0.0456 0.041 0.9891 -39.6011 169.3822)">
				<stop  offset="0" style="stop-color:#C97D21"/>
				<stop  offset="0.511" style="stop-color:#B56E08"/>
				<stop  offset="0.8901" style="stop-color:#9E5921"/>
			</linearGradient>
			<path class="st25" d="M33.76,77.36c0.03,0.74-0.57,1.37-1.33,1.41l0,0c-0.76,0.04-1.41-0.54-1.43-1.28l-1.43-37.32
				c-0.03-0.74,0.57-1.37,1.33-1.41l0,0c0.76-0.03,1.4,0.54,1.43,1.28L33.76,77.36z"/>
			<g>
				<path class="st0" d="M31.23,40.02c0,0.17-0.12,0.3-0.28,0.3c-0.15,0-0.28-0.14-0.28-0.3c0-0.17,0.13-0.3,0.28-0.3
					C31.11,39.72,31.23,39.85,31.23,40.02z"/>
				<path class="st26" d="M31.19,39.98c0,0.14-0.11,0.26-0.24,0.26c-0.13,0-0.24-0.12-0.24-0.26c0-0.14,0.11-0.26,0.24-0.26
					C31.09,39.72,31.19,39.83,31.19,39.98z"/>
			</g>
		</g>
	</g>
</g>
</svg>
