<svg xmlns="http://www.w3.org/2000/svg" xmlns:xlink="http://www.w3.org/1999/xlink" width="58.218" height="60.779" viewBox="0 0 58.218 60.779">
    <defs>
        <linearGradient id="linear-gradient" x1=".829" x2="1.317" y1="-.311" y2="-1.319" gradientUnits="objectBoundingBox">
            <stop offset="0" stop-color="#b56e08"/>
            <stop offset=".511" stop-color="#b56e08"/>
            <stop offset=".89" stop-color="#9e6136"/>
        </linearGradient>
        <linearGradient id="linear-gradient-2" x1="2.342" x2="2.344" y1="12.003" y2="11.942" gradientUnits="objectBoundingBox">
            <stop offset="0" stop-color="#ab7a38"/>
            <stop offset=".363" stop-color="#d99938"/>
            <stop offset=".89" stop-color="#9e5e2e"/>
        </linearGradient>
        <linearGradient id="linear-gradient-3" x1=".53" x2="-.274" y1="-9.535" y2="-8.829" gradientUnits="objectBoundingBox">
            <stop offset="0" stop-color="#dea659"/>
            <stop offset=".363" stop-color="#d99938"/>
            <stop offset=".89" stop-color="#9e5e2e"/>
        </linearGradient>
        <linearGradient id="linear-gradient-4" x1="29.451" x2="29.491" y1="-12.575" y2="-15.754" gradientUnits="objectBoundingBox">
            <stop offset="0" stop-color="#b56e08"/>
            <stop offset=".511" stop-color="#b56e08"/>
            <stop offset=".89" stop-color="#9e4102"/>
        </linearGradient>
        <linearGradient id="linear-gradient-5" x1="94.212" x2="94.228" y1="-42.165" y2="-42.401" gradientUnits="objectBoundingBox">
            <stop offset="0" stop-color="#eba633"/>
            <stop offset=".511" stop-color="#dba359"/>
            <stop offset="1" stop-color="#a87536"/>
        </linearGradient>
        <linearGradient id="linear-gradient-6" x1="-.377" x2="-1.543" y1="-10.305" y2="-10.182" xlink:href="#linear-gradient-4"/>
        <linearGradient id="linear-gradient-7" x1="-.101" x2="-1.272" y1="-9.957" y2="-9.835" xlink:href="#linear-gradient-4"/>
        <linearGradient id="linear-gradient-8" x1="106.625" x2="105.233" y1="-54.526" y2="-55.119" gradientUnits="objectBoundingBox">
            <stop offset="0" stop-color="#c98c21"/>
            <stop offset=".511" stop-color="#b58226"/>
            <stop offset=".89" stop-color="#9e5e24"/>
        </linearGradient>
        <linearGradient id="linear-gradient-9" x1="-.076" x2=".889" y1="-2.613" y2="-1.659" gradientUnits="objectBoundingBox">
            <stop offset="0" stop-color="#d1d2d7"/>
            <stop offset=".511" stop-color="#f0f0f0"/>
            <stop offset=".561" stop-color="#ececed"/>
            <stop offset=".608" stop-color="#e1e1e3"/>
            <stop offset=".648" stop-color="#d1d2d7"/>
        </linearGradient>
        <linearGradient id="linear-gradient-10" x1="-.209" x2=".703" y1="-2.936" y2="-2.936" gradientUnits="objectBoundingBox">
            <stop offset="0" stop-color="#cc2215"/>
            <stop offset=".467" stop-color="#fa453d"/>
            <stop offset=".54" stop-color="#ef3d35"/>
            <stop offset=".665" stop-color="#d42820"/>
            <stop offset=".775" stop-color="#b7130b"/>
            <stop offset=".876" stop-color="#b9140c"/>
            <stop offset=".924" stop-color="#c01b10"/>
            <stop offset=".962" stop-color="#cd2516"/>
            <stop offset=".993" stop-color="#e03420"/>
            <stop offset="1" stop-color="#e53923"/>
        </linearGradient>
        <linearGradient id="linear-gradient-11" x1="-.204" x2=".707" y1="-2.813" y2="-2.813" xlink:href="#linear-gradient-10"/>
        <linearGradient id="linear-gradient-12" x1="-.214" x2=".697" y1="-3.049" y2="-3.049" xlink:href="#linear-gradient-10"/>
        <linearGradient id="linear-gradient-13" x1="-.219" x2=".693" y1="-3.172" y2="-3.172" xlink:href="#linear-gradient-10"/>
        <linearGradient id="linear-gradient-14" x1="-.246" x2=".882" y1="-9.319" y2="-9.923" gradientUnits="objectBoundingBox">
            <stop offset="0" stop-color="#d19108"/>
            <stop offset=".511" stop-color="#b56e08"/>
            <stop offset="1" stop-color="#9e5e02"/>
        </linearGradient>
        <linearGradient id="linear-gradient-15" x1="2.293" x2="2.294" y1="10.055" y2="10.022" gradientUnits="objectBoundingBox">
            <stop offset="0" stop-color="#cf9459"/>
            <stop offset=".363" stop-color="#d99938"/>
            <stop offset=".89" stop-color="#9e5e2e"/>
        </linearGradient>
        <linearGradient id="linear-gradient-16" x1="6.206" x2="6.57" y1="-1.732" y2="-2.742" gradientUnits="objectBoundingBox">
            <stop offset="0" stop-color="#c97d21"/>
            <stop offset=".511" stop-color="#b56e08"/>
            <stop offset=".89" stop-color="#9e5921"/>
        </linearGradient>
        <style>
            .cls-59{mix-blend-mode:multiply;isolation:isolate}.cls-57{fill:#ffdb92}.cls-59{fill:#c4b8ad}.cls-65{fill:#efb745}
        </style>
    </defs>
    <g id="Group_20" data-name="Group 20" transform="translate(-160.64 -165.36)">
        <g id="Group_6" data-name="Group 6" transform="translate(167.819 202.014)" style="isolation:isolate;mix-blend-mode:multiply">
            <path id="Path_86" fill="#fefefe" d="M220.86 275.233c.068.017 2.895-6.934 2.888-6.948s1.221-3.461 1.208-3.473 1.073-2.79 1.085-2.79 2.547-6.14 2.517-6.143c-.27-.031-35.221-4.514-35.233-4.514s-3.874 3.232-3.874 3.253-4.067 3.291-4.067 3.291-7.572 6.032-7.595 6.032 4.674 1.242 4.674 1.242 38.328 10.034 38.397 10.05z" data-name="Path 86" opacity="0.019" transform="translate(-177.653 -251.337)"/>
            <path id="Path_87" fill="#fdfdfd" d="M220.673 275.042c.136.033 3.073-6.736 3.059-6.764-.026-.05 1.119-3.449 1.094-3.475S225.915 262 225.94 262s2.725-6.056 2.664-6.063c-.539-.064-35.007-4.5-35.032-4.5s-3.769 3.235-3.769 3.276-4.067 3.282-4.067 3.282-7.584 5.926-7.629 5.926 4.6 1.236 4.6 1.236c.019.005 37.828 9.852 37.966 9.885z" data-name="Path 87" opacity="0.037" transform="translate(-177.835 -251.375)"/>
            <path id="Path_88" fill="#fcfcfc" d="M220.486 274.851c.2.049 3.252-6.537 3.231-6.579-.038-.076 1.017-3.437.979-3.475s1.106-2.824 1.144-2.824 2.9-5.972 2.812-5.983c-.808-.1-34.794-4.494-34.831-4.494s-3.665 3.238-3.665 3.3-4.067 3.272-4.067 3.272-7.6 5.822-7.663 5.821 4.527 1.229 4.527 1.229c.027.018 37.326 9.682 37.533 9.733z" data-name="Path 88" opacity="0.056" transform="translate(-178.018 -251.412)"/>
            <path id="Path_89" fill="#fbfbfb" d="M220.3 274.659c.271.066 3.43-6.339 3.4-6.395-.05-.1.915-3.425.865-3.476a27.878 27.878 0 0 1 1.173-2.841c.05 0 3.08-5.888 2.959-5.9-1.077-.128-34.579-4.484-34.63-4.484s-3.561 3.241-3.561 3.324-4.067 3.263-4.067 3.263-7.607 5.717-7.7 5.716 4.455 1.222 4.455 1.222c.04.022 36.828 9.505 37.106 9.571z" data-name="Path 89" opacity="0.074" transform="translate(-178.199 -251.45)"/>
            <path id="Path_90" fill="#fafafa" d="M220.11 274.468c.339.082 3.609-6.14 3.574-6.21-.063-.125.813-3.413.75-3.476a22.907 22.907 0 0 1 1.2-2.858c.063 0 3.258-5.8 3.107-5.822-1.347-.161-34.366-4.475-34.429-4.475s-3.456 3.244-3.456 3.349-4.067 3.253-4.067 3.253-7.618 5.612-7.732 5.611 4.382 1.215 4.382 1.215c.049.029 36.326 9.329 36.671 9.413z" data-name="Path 90" opacity="0.093" transform="translate(-178.38 -251.487)"/>
            <path id="Path_91" fill="#f9f9f9" d="M219.922 274.276c.408.1 3.788-5.943 3.746-6.026-.075-.151.711-3.4.636-3.477a19.444 19.444 0 0 1 1.231-2.875 61.95 61.95 0 0 0 3.254-5.742c-1.617-.192-34.152-4.465-34.228-4.465s-3.352 3.247-3.352 3.373-4.067 3.243-4.067 3.243-7.63 5.507-7.766 5.506 4.309 1.209 4.309 1.209c.056.035 35.823 9.153 36.237 9.254z" data-name="Path 91" opacity="0.111" transform="translate(-178.562 -251.525)"/>
            <path id="Path_92" fill="#f8f8f8" d="M219.734 274.085c.475.116 3.966-5.743 3.917-5.841-.088-.176.609-3.389.521-3.477a16.937 16.937 0 0 1 1.261-2.892 53.85 53.85 0 0 0 3.4-5.661c-1.886-.225-33.939-4.455-34.027-4.455a44.592 44.592 0 0 0-3.248 3.4c0 .146-4.067 3.234-4.067 3.234s-7.641 5.4-7.8 5.4 4.236 1.2 4.236 1.2c.073.038 35.323 8.975 35.807 9.092z" data-name="Path 92" opacity="0.13" transform="translate(-178.743 -251.563)"/>
            <path id="Path_93" fill="#f7f7f7" d="M219.546 273.893c.543.132 4.145-5.545 4.089-5.656-.1-.2.507-3.378.406-3.479a15.083 15.083 0 0 1 1.29-2.909c.1 0 3.791-5.551 3.549-5.58-2.156-.257-33.726-4.445-33.826-4.445a38.458 38.458 0 0 0-3.143 3.421c0 .167-4.068 3.224-4.068 3.224s-7.653 5.3-7.834 5.3 4.164 1.2 4.164 1.2c.075.036 34.82 8.79 35.373 8.924z" data-name="Path 93" opacity="0.148" transform="translate(-178.924 -251.6)"/>
            <path id="Path_94" fill="#f6f6f6" d="M219.357 273.7c.611.148 4.324-5.347 4.261-5.472-.113-.226.405-3.366.292-3.479a13.661 13.661 0 0 1 1.32-2.926c.113 0 3.969-5.468 3.7-5.5-2.425-.289-33.512-4.435-33.625-4.435a33.565 33.565 0 0 0-3.039 3.444c0 .188-4.067 3.215-4.067 3.215s-7.664 5.193-7.869 5.191 4.091 1.189 4.091 1.189c.079.053 34.314 8.625 34.936 8.773z" data-name="Path 94" opacity="0.167" transform="translate(-179.104 -251.638)"/>
            <path id="Path_95" fill="#f6f5f5" d="M219.168 273.511c.679.165 4.5-5.149 4.433-5.288-.126-.252.3-3.354.177-3.479a12.487 12.487 0 0 1 1.349-2.943c.125 0 4.146-5.384 3.844-5.42-2.7-.321-33.3-4.425-33.424-4.425a29.822 29.822 0 0 0-2.934 3.468c0 .209-4.068 3.206-4.068 3.206s-7.676 5.087-7.9 5.085 4.018 1.183 4.018 1.183c.09.056 33.814 8.446 34.505 8.613z" data-name="Path 95" opacity="0.185" transform="translate(-179.284 -251.676)"/>
            <path id="Path_96" fill="#f5f4f4" d="M218.978 273.32c.747.181 4.681-4.95 4.6-5.1-.138-.276.2-3.342.063-3.48a11.547 11.547 0 0 1 1.378-2.96c.138 0 4.324-5.3 3.99-5.34-2.964-.353-33.084-4.415-33.222-4.415a26.728 26.728 0 0 0-2.83 3.492 49.272 49.272 0 0 1-4.068 3.2s-7.687 4.983-7.937 4.981 3.945 1.176 3.945 1.176c.108.054 33.321 8.262 34.081 8.446z" data-name="Path 96" opacity="0.204" transform="translate(-179.464 -251.713)"/>
            <path id="Path_97" fill="#f4f3f3" d="M218.789 273.128c.815.2 4.859-4.752 4.776-4.919-.151-.3.1-3.33-.052-3.48a10.79 10.79 0 0 1 1.408-2.978c.151 0 4.5-5.216 4.138-5.259-3.233-.385-32.871-4.406-33.021-4.406a24.19 24.19 0 0 0-2.726 3.516 44.946 44.946 0 0 1-4.068 3.187s-7.7 4.878-7.971 4.876 3.872 1.169 3.872 1.169c.112.066 32.815 8.093 33.644 8.294z" data-name="Path 97" opacity="0.222" transform="translate(-179.644 -251.751)"/>
            <path id="Path_98" fill="#f3f2f2" d="M218.6 272.937c.883.214 5.038-4.554 4.947-4.735-.163-.326 0-3.317-.166-3.481a10.135 10.135 0 0 1 1.437-2.994c.163 0 4.679-5.133 4.286-5.179-3.5-.417-32.657-4.4-32.821-4.4a22.131 22.131 0 0 0-2.621 3.54 41.359 41.359 0 0 1-4.068 3.177s-7.71 4.773-8.005 4.771 3.8 1.163 3.8 1.163c.119.076 32.311 7.92 33.211 8.138z" data-name="Path 98" opacity="0.241" transform="translate(-179.823 -251.788)"/>
            <path id="Path_99" fill="#f2f2f1" d="M218.409 272.746c.951.23 5.217-4.356 5.119-4.55-.176-.352-.1-3.306-.281-3.482a9.584 9.584 0 0 1 1.467-3.012c.176 0 4.857-5.049 4.433-5.1-3.772-.45-32.444-4.386-32.619-4.386a20.331 20.331 0 0 0-2.517 3.564c0 .293-4.068 3.168-4.068 3.168s-7.722 4.668-8.039 4.666 3.726 1.156 3.726 1.156c.13.08 31.811 7.741 32.779 7.976z" data-name="Path 99" opacity="0.259" transform="translate(-180.002 -251.826)"/>
            <path id="Path_100" fill="#f1f1f0" d="M218.218 272.554c1.019.247 5.4-4.157 5.291-4.366-.189-.377-.207-3.294-.4-3.482a9.085 9.085 0 0 1 1.5-3.029c.188 0 5.034-4.964 4.58-5.018-4.042-.482-32.23-4.377-32.418-4.377a18.843 18.843 0 0 0-2.413 3.588c0 .314-4.068 3.159-4.068 3.159s-7.733 4.563-8.073 4.56 3.653 1.15 3.653 1.15c.141.084 31.312 7.561 32.348 7.815z" data-name="Path 100" opacity="0.278" transform="translate(-180.181 -251.863)"/>
            <path id="Path_101" fill="#f0f0ef" d="M218.027 272.362c1.087.264 5.574-3.958 5.463-4.181-.2-.4-.309-3.282-.511-3.483s1.324-3.046 1.526-3.046 5.212-4.88 4.727-4.938c-4.312-.514-32.016-4.367-32.217-4.367a17.559 17.559 0 0 0-2.308 3.612c0 .335-4.068 3.149-4.068 3.149s-7.745 4.458-8.107 4.456 3.581 1.143 3.581 1.143c.149.093 30.808 7.388 31.914 7.655z" data-name="Path 101" opacity="0.296" transform="translate(-180.359 -251.901)"/>
            <path id="Path_102" fill="#efefee" d="M217.837 272.171c1.155.28 5.753-3.76 5.634-4-.213-.427-.411-3.27-.624-3.483s1.34-3.062 1.554-3.062 5.39-4.8 4.875-4.858c-4.581-.546-31.8-4.357-32.016-4.357a16.467 16.467 0 0 0-2.2 3.636c0 .356-4.068 3.139-4.068 3.139s-7.756 4.354-8.142 4.35 3.507 1.137 3.507 1.137c.155.098 30.305 7.213 31.48 7.498z" data-name="Path 102" opacity="0.315" transform="translate(-180.538 -251.938)"/>
            <path id="Path_103" fill="#eeeeed" d="M217.645 271.98c1.223.3 5.931-3.562 5.806-3.813-.226-.453-.513-3.258-.739-3.484s1.358-3.08 1.584-3.08 5.568-4.712 5.023-4.777c-4.85-.578-31.589-4.347-31.815-4.347a15.519 15.519 0 0 0-2.1 3.66c0 .377-4.068 3.13-4.068 3.13s-7.768 4.249-8.176 4.245a34.846 34.846 0 0 0 3.435 1.13c.167.101 29.805 7.034 31.05 7.336z" data-name="Path 103" opacity="0.333" transform="translate(-180.716 -251.976)"/>
            <path id="Path_104" fill="#ededec" d="M217.453 271.788c1.291.313 6.111-3.363 5.978-3.628-.239-.477-.615-3.246-.854-3.485s1.374-3.1 1.613-3.1 5.745-4.628 5.17-4.7c-5.12-.61-31.376-4.338-31.614-4.338a14.69 14.69 0 0 0-1.995 3.685c0 .4-4.068 3.12-4.068 3.12s-7.779 4.144-8.21 4.14a31.251 31.251 0 0 0 3.361 1.124c.178.113 29.306 6.864 30.619 7.182z" data-name="Path 104" opacity="0.352" transform="translate(-180.893 -252.013)"/>
            <path id="Path_105" fill="#ececeb" d="M217.26 271.6c1.359.329 6.289-3.166 6.149-3.444-.251-.5-.717-3.234-.968-3.485s1.39-3.114 1.642-3.114 5.923-4.544 5.317-4.617c-5.389-.642-31.162-4.328-31.413-4.328a14 14 0 0 0-1.891 3.708c0 .419-4.068 3.111-4.068 3.111s-7.791 4.039-8.244 4.036a28.166 28.166 0 0 0 3.289 1.117c.188.109 28.806 6.677 30.187 7.016z" data-name="Path 105" opacity="0.37" transform="translate(-181.07 -252.051)"/>
            <path id="Path_106" fill="#ebebea" d="M217.068 271.406c1.427.345 6.468-2.967 6.321-3.259-.264-.528-.819-3.222-1.083-3.486s1.408-3.131 1.672-3.131 6.1-4.46 5.465-4.536c-5.659-.674-30.949-4.318-31.213-4.318a13.393 13.393 0 0 0-1.786 3.732c0 .44-4.068 3.1-4.068 3.1s-7.8 3.935-8.278 3.93a25.267 25.267 0 0 0 3.216 1.111c.196.118 28.303 6.505 29.754 6.857z" data-name="Path 106" opacity="0.389" transform="translate(-181.247 -252.088)"/>
            <path id="Path_107" fill="#eaeae9" d="M216.876 271.214c1.494.362 6.646-2.768 6.492-3.075-.276-.553-.92-3.21-1.2-3.487s1.425-3.148 1.7-3.148 6.278-4.377 5.612-4.456c-5.928-.706-30.735-4.309-31.011-4.309s-1.682 3.3-1.682 3.756-4.068 3.092-4.068 3.092-7.814 3.829-8.313 3.825 3.143 1.1 3.143 1.1c.21.129 27.806 6.333 29.327 6.702z" data-name="Path 107" opacity="0.407" transform="translate(-181.423 -252.126)"/>
            <path id="Path_108" fill="#e9e9e8" d="M216.682 271.023c1.562.379 6.825-2.57 6.664-2.89-.289-.578-1.023-3.2-1.311-3.487s1.441-3.165 1.73-3.165 6.456-4.293 5.76-4.376c-6.2-.739-30.521-4.3-30.81-4.3s-1.578 3.3-1.578 3.78-4.069 3.083-4.069 3.083-7.825 3.724-8.347 3.72 3.07 1.1 3.07 1.1c.216.127 27.302 6.149 28.891 6.535z" data-name="Path 108" opacity="0.426" transform="translate(-181.599 -252.164)"/>
            <path id="Path_109" fill="#e8e8e7" d="M216.488 270.831c1.631.395 7-2.372 6.837-2.706-.3-.6-1.125-3.186-1.427-3.488s1.458-3.183 1.76-3.183 6.633-4.208 5.906-4.295c-6.467-.771-30.307-4.289-30.609-4.289s-1.473 3.3-1.473 3.8-4.068 3.073-4.068 3.073-7.837 3.619-8.381 3.615 3 1.091 3 1.091c.222.14 26.798 5.98 28.455 6.382z" data-name="Path 109" opacity="0.444" transform="translate(-181.775 -252.201)"/>
            <path id="Path_110" fill="#e7e7e6" d="M216.295 270.64c1.7.412 7.182-2.173 7.008-2.522a38.106 38.106 0 0 0-1.541-3.488c-.314-.314 1.474-3.2 1.789-3.2s6.811-4.125 6.054-4.215c-6.736-.8-30.094-4.279-30.408-4.279s-1.369 3.3-1.369 3.828-4.069 3.064-4.069 3.064-7.848 3.514-8.415 3.51 2.925 1.084 2.925 1.084c.231.141 26.298 5.799 28.026 6.218z" data-name="Path 110" opacity="0.463" transform="translate(-181.95 -252.239)"/>
            <path id="Path_111" fill="#e6e6e5" d="M216.1 270.448c1.766.428 7.361-1.975 7.18-2.337a35.311 35.311 0 0 0-1.656-3.489c-.327-.327 1.491-3.216 1.819-3.216s6.988-4.041 6.2-4.135c-7.006-.835-29.88-4.269-30.207-4.269s-1.264 3.308-1.264 3.852-4.069 3.054-4.069 3.054-7.86 3.41-8.449 3.4 2.852 1.078 2.852 1.078c.244.151 25.794 5.626 27.594 6.062z" data-name="Path 111" opacity="0.481" transform="translate(-182.126 -252.276)"/>
            <path id="Path_112" fill="#e6e5e4" d="M215.906 270.257c1.834.445 7.539-1.776 7.351-2.153a33.267 33.267 0 0 0-1.77-3.489c-.34-.339 1.508-3.233 1.847-3.233s7.166-3.957 6.349-4.054c-7.275-.867-29.666-4.26-30.006-4.26s-1.16 3.311-1.16 3.876-4.069 3.045-4.069 3.045-7.871 3.3-8.483 3.3 2.779 1.071 2.779 1.071c.256.151 25.296 5.44 27.162 5.897z" data-name="Path 112" opacity="0.5" transform="translate(-182.3 -252.314)"/>
            <path id="Path_113" fill="#e5e4e4" d="M215.71 270.066c1.9.461 7.718-1.578 7.523-1.968a31.366 31.366 0 0 0-1.884-3.49c-.352-.352 1.525-3.25 1.877-3.25s7.344-3.873 6.5-3.974c-7.545-.9-29.453-4.249-29.8-4.249s-1.056 3.313-1.056 3.9-4.069 3.035-4.069 3.035-7.883 3.2-8.517 3.195 2.706 1.064 2.706 1.064c.252.156 24.785 5.271 26.72 5.737z" data-name="Path 113" opacity="0.519" transform="translate(-182.474 -252.352)"/>
            <path id="Path_114" fill="#e4e3e3" d="M215.514 269.874c1.97.478 7.9-1.38 7.7-1.784a29.681 29.681 0 0 0-2-3.49c-.365-.365 1.542-3.267 1.906-3.267s7.522-3.789 6.645-3.894c-7.815-.931-29.24-4.24-29.6-4.24s-.951 3.317-.951 3.924-4.069 3.026-4.069 3.026-7.894 3.1-8.552 3.09 2.633 1.058 2.633 1.058c.262.162 24.285 5.091 26.288 5.577z" data-name="Path 114" opacity="0.537" transform="translate(-182.648 -252.389)"/>
            <path id="Path_115" fill="#e3e2e2" d="M215.318 269.683c2.037.494 8.076-1.181 7.866-1.6a28.32 28.32 0 0 0-2.113-3.491c-.377-.377 1.558-3.284 1.935-3.284s7.7-3.705 6.792-3.813c-8.084-.963-29.026-4.23-29.4-4.23s-.847 3.319-.847 3.948-4.069 3.016-4.069 3.016-7.906 2.991-8.586 2.985 2.56 1.051 2.56 1.051c.277.168 23.789 4.916 25.862 5.418z" data-name="Path 115" opacity="0.556" transform="translate(-182.821 -252.427)"/>
            <path id="Path_116" fill="#e2e1e1" d="M215.122 269.492c2.106.51 8.254-.984 8.038-1.416a27.194 27.194 0 0 0-2.228-3.491c-.389-.389 1.575-3.3 1.965-3.3s7.878-3.621 6.939-3.733c-8.353-1-28.812-4.22-29.2-4.22s-.742 3.322-.742 3.972-4.069 3.006-4.069 3.006-7.918 2.886-8.62 2.88 2.487 1.045 2.487 1.045c.287.172 23.288 4.737 25.43 5.257z" data-name="Path 116" opacity="0.574" transform="translate(-182.993 -252.464)"/>
            <path id="Path_117" fill="#e1e0e0" d="M214.925 269.3c2.173.527 8.433-.785 8.21-1.231a26.327 26.327 0 0 0-2.343-3.492c-.4-.4 1.592-3.319 1.994-3.319s8.055-3.537 7.086-3.653c-8.622-1.027-28.6-4.21-29-4.21s-.638 3.325-.638 4-4.069 3-4.069 3-7.929 2.781-8.654 2.774 2.414 1.038 2.414 1.038c.298.174 22.788 4.557 25 5.093z" data-name="Path 117" opacity="0.593" transform="translate(-183.166 -252.502)"/>
            <path id="Path_118" fill="#e0dfdf" d="M214.728 269.108c2.242.544 8.612-.586 8.382-1.046a25.465 25.465 0 0 0-2.457-3.493c-.415-.415 1.608-3.335 2.023-3.335s8.233-3.453 7.234-3.572c-8.892-1.06-28.385-4.2-28.8-4.2s-.534 3.329-.534 4.02-4.069 2.988-4.069 2.988-7.941 2.675-8.688 2.669 2.342 1.032 2.342 1.032c.306.184 22.286 4.385 24.567 4.937z" data-name="Path 118" opacity="0.611" transform="translate(-183.338 -252.539)"/>
            <path id="Path_119" fill="#dfdede" d="M214.529 268.917c2.31.56 8.79-.388 8.554-.861a24.756 24.756 0 0 0-2.572-3.494c-.427-.427 1.625-3.353 2.052-3.353s8.41-3.369 7.381-3.491c-9.162-1.092-28.171-4.191-28.6-4.191s-.429 3.332-.429 4.044-4.07 2.978-4.07 2.978-7.952 2.571-8.723 2.564 2.269 1.025 2.269 1.025c.32.191 21.789 4.209 24.138 4.779z" data-name="Path 119" opacity="0.63" transform="translate(-183.509 -252.577)"/>
            <path id="Path_120" fill="#dedddd" d="M214.331 268.726c2.377.577 8.969-.19 8.725-.677a24.092 24.092 0 0 0-2.686-3.494c-.44-.44 1.642-3.37 2.082-3.37s8.588-3.286 7.528-3.412c-9.431-1.124-27.958-4.181-28.4-4.181s-.325 3.335-.325 4.068-4.069 2.969-4.069 2.969-7.964 2.466-8.757 2.459 2.2 1.018 2.2 1.018c.325.194 21.283 4.033 23.702 4.62z" data-name="Path 120" opacity="0.648" transform="translate(-183.679 -252.614)"/>
            <path id="Path_121" fill="#dddcdc" d="M214.132 268.534c2.445.593 9.147.009 8.9-.493a23.625 23.625 0 0 0-2.8-3.495c-.453-.453 1.659-3.387 2.111-3.387s8.766-3.2 7.676-3.331c-9.7-1.156-27.744-4.172-28.2-4.172s-.221 3.338-.221 4.092-4.07 2.96-4.07 2.96-7.975 2.361-8.791 2.354 2.123 1.012 2.123 1.012c.34.203 20.784 3.857 23.272 4.46z" data-name="Path 121" opacity="0.667" transform="translate(-183.85 -252.652)"/>
            <path id="Path_122" fill="#dcdbdb" d="M213.932 268.343c2.514.609 9.326.207 9.069-.308a23.188 23.188 0 0 0-2.916-3.5c-.465-.465 1.676-3.4 2.141-3.4s8.943-3.117 7.823-3.251c-9.97-1.188-27.531-4.161-28-4.161s-.116 3.341-.116 4.116-4.07 2.95-4.07 2.95-7.986 2.256-8.825 2.249 2.05 1.005 2.05 1.005c.35.207 20.287 3.68 22.844 4.3z" data-name="Path 122" opacity="0.685" transform="translate(-184.019 -252.69)"/>
            <path id="Path_123" fill="#dbdada" d="M213.732 268.151c2.581.626 9.5.405 9.24-.124a22.779 22.779 0 0 0-3.029-3.5c-.478-.478 1.692-3.421 2.17-3.421s9.12-3.033 7.97-3.17c-10.24-1.22-27.317-4.152-27.794-4.152s-.012 3.344-.012 4.14-4.07 2.941-4.07 2.941-8 2.152-8.859 2.144 1.977 1 1.977 1c.354.216 19.781 3.506 22.407 4.142z" data-name="Path 123" opacity="0.704" transform="translate(-184.188 -252.727)"/>
            <path id="Path_124" fill="#dad9d9" d="M213.531 267.96c2.649.642 9.683.6 9.412.06a22.5 22.5 0 0 0-3.145-3.5c-.49-.49 1.709-3.438 2.2-3.438s9.3-2.95 8.118-3.09c-10.509-1.252-27.1-4.142-27.593-4.142s.093 3.347.093 4.164-4.07 2.931-4.07 2.931-8.009 2.047-8.894 2.04 1.9.992 1.9.992c.368.223 19.284 3.33 21.979 3.983z" data-name="Path 124" opacity="0.722" transform="translate(-184.357 -252.765)"/>
            <path id="Path_125" fill="#d9d8d8" d="M213.33 267.769c2.717.659 9.862.8 9.583.245a22.206 22.206 0 0 0-3.259-3.5c-.5-.5 1.726-3.456 2.228-3.456s9.476-2.865 8.265-3.01c-10.778-1.284-26.889-4.132-27.392-4.132s.2 3.35.2 4.187-4.07 2.922-4.07 2.922-8.021 1.942-8.928 1.934 1.831.986 1.831.986c.373.227 18.778 3.155 21.542 3.824z" data-name="Path 125" opacity="0.741" transform="translate(-184.525 -252.802)"/>
            <path id="Path_126" fill="#d8d8d7" d="M213.128 267.577c2.785.675 10.041 1 9.755.429-.515-1.03-2.859-2.983-3.374-3.5s1.743-3.472 2.258-3.472 9.654-2.782 8.413-2.93c-11.048-1.316-26.676-4.123-27.191-4.123s.3 3.354.3 4.212-4.07 2.913-4.07 2.913-8.032 1.837-8.962 1.829 1.758.979 1.758.979c.385.232 18.28 2.976 21.113 3.663z" data-name="Path 126" opacity="0.759" transform="translate(-184.692 -252.839)"/>
            <path id="Path_127" fill="#d7d7d6" d="M212.925 267.386c2.853.692 10.22 1.2 9.927.614-.528-1.056-2.961-2.971-3.488-3.5s1.759-3.489 2.287-3.489 9.832-2.7 8.56-2.849c-11.318-1.348-26.463-4.112-26.991-4.112s.406 3.356.406 4.236-4.071 2.9-4.071 2.9-8.044 1.732-9 1.724 1.686.973 1.686.973c.397.237 17.782 2.799 20.684 3.503z" data-name="Path 127" opacity="0.778" transform="translate(-184.859 -252.877)"/>
            <path id="Path_128" fill="#d6d6d5" d="M212.722 267.194c2.921.708 10.4 1.4 10.1.8-.54-1.08-3.062-2.958-3.6-3.5s1.776-3.506 2.316-3.506 10.009-2.614 8.708-2.769c-11.587-1.381-26.249-4.1-26.789-4.1s.51 3.359.51 4.26-4.07 2.893-4.07 2.893-8.055 1.627-9.03 1.619 1.613.966 1.613.966c.396.237 17.27 2.616 20.242 3.337z" data-name="Path 128" opacity="0.796" transform="translate(-185.025 -252.914)"/>
            <path id="Path_129" fill="#d5d5d4" d="M212.518 267c2.989.725 10.577 1.6 10.27.983-.553-1.106-3.165-2.946-3.717-3.5s1.793-3.524 2.346-3.524 10.187-2.53 8.855-2.689c-11.856-1.412-26.035-4.093-26.588-4.093s.615 3.363.615 4.284-4.07 2.883-4.07 2.883-8.067 1.523-9.064 1.514 1.54.959 1.54.959c.409.251 16.772 2.449 19.813 3.183z" data-name="Path 129" opacity="0.815" transform="translate(-185.19 -252.952)"/>
            <path id="Path_130" fill="#d5d4d3" d="M212.313 266.811c3.057.741 10.755 1.794 10.442 1.167-.565-1.131-3.266-2.934-3.831-3.5s1.81-3.54 2.375-3.54 10.365-2.446 9-2.609c-12.126-1.445-25.822-4.083-26.387-4.083s.719 3.365.719 4.308-4.071 2.874-4.071 2.874-8.078 1.417-9.1 1.409 1.467.953 1.467.953c.424.253 16.273 2.268 19.386 3.021z" data-name="Path 130" opacity="0.833" transform="translate(-185.355 -252.99)"/>
            <path id="Path_131" fill="#d4d3d2" d="M212.107 266.621c3.125.757 10.934 1.992 10.614 1.351-.578-1.156-3.368-2.923-3.946-3.5s1.827-3.557 2.4-3.557 10.542-2.362 9.149-2.528c-12.395-1.477-25.608-4.073-26.185-4.073s.823 3.368.823 4.331-4.071 2.865-4.071 2.865-8.09 1.312-9.133 1.3 1.394.946 1.394.946c.435.261 15.777 2.094 18.955 2.865z" data-name="Path 131" opacity="0.852" transform="translate(-185.518 -253.028)"/>
            <path id="Path_132" fill="#d3d2d1" d="M211.9 266.429c3.193.774 11.113 2.191 10.786 1.535-.59-1.181-3.47-2.91-4.061-3.5s1.843-3.574 2.434-3.574 10.72-2.278 9.3-2.448c-12.665-1.509-25.394-4.063-25.985-4.063s.928 3.371.928 4.355-4.071 2.855-4.071 2.855-8.1 1.207-9.167 1.2 1.321.94 1.321.94c.438.262 15.269 1.913 18.515 2.7z" data-name="Path 132" opacity="0.87" transform="translate(-185.682 -253.065)"/>
            <path id="Path_133" fill="#d2d1d0" d="M211.7 266.237c3.261.79 11.291 2.389 10.957 1.721-.6-1.206-3.572-2.9-4.176-3.5s1.86-3.592 2.464-3.592 10.9-2.194 9.444-2.367c-12.934-1.541-25.181-4.054-25.784-4.054s1.032 3.375 1.032 4.379-4.071 2.846-4.071 2.846-8.113 1.1-9.2 1.093 1.248.934 1.248.934c.443.267 14.764 1.736 18.086 2.54z" data-name="Path 133" opacity="0.889" transform="translate(-185.844 -253.102)"/>
            <path id="Path_134" fill="#d1d0cf" d="M211.487 266.046c3.328.807 11.47 2.587 11.129 1.9-.616-1.231-3.675-2.887-4.29-3.5s1.877-3.609 2.493-3.609 11.075-2.11 9.592-2.287c-13.2-1.573-24.967-4.044-25.583-4.044s1.137 3.377 1.137 4.4-4.071 2.836-4.071 2.836-8.125 1-9.235.989 1.176.927 1.176.927c.456.28 14.265 1.567 17.652 2.388z" data-name="Path 134" opacity="0.907" transform="translate(-186.006 -253.14)"/>
            <path id="Path_135" fill="#d0cfce" d="M211.279 265.855c3.4.823 11.649 2.785 11.3 2.089-.629-1.256-3.777-2.875-4.4-3.5s1.893-3.626 2.522-3.626 11.253-2.026 9.739-2.206c-13.473-1.6-24.754-4.034-25.382-4.034s1.241 3.38 1.241 4.428-4.071 2.827-4.071 2.827-8.136.893-9.269.883 1.1.921 1.1.921c.465.275 13.765 1.38 17.22 2.218z" data-name="Path 135" opacity="0.926" transform="translate(-186.167 -253.178)"/>
            <path id="Path_136" fill="#cfcecd" d="M211.069 265.663c3.465.84 11.827 2.984 11.472 2.274-.641-1.281-3.878-2.862-4.519-3.5s1.911-3.643 2.551-3.643 11.43-1.942 9.886-2.127c-13.742-1.637-24.54-4.024-25.181-4.024s1.345 3.383 1.345 4.451-4.071 2.818-4.071 2.818-8.147.788-9.3.778 1.03.913 1.03.913c.474.283 13.264 1.206 16.787 2.06z" data-name="Path 136" opacity="0.944" transform="translate(-186.327 -253.215)"/>
            <path id="Path_137" fill="#cecdcc" d="M210.859 265.471c3.532.856 12.006 3.183 11.644 2.458-.653-1.307-3.981-2.851-4.634-3.5s1.927-3.66 2.58-3.66 11.608-1.858 10.034-2.046c-14.012-1.669-24.326-4.015-24.98-4.015s1.45 3.386 1.45 4.475-4.071 2.808-4.071 2.808-8.159.684-9.338.673.957.907.957.907c.486.289 12.765 1.029 16.358 1.9z" data-name="Path 137" opacity="0.963" transform="translate(-186.486 -253.253)"/>
            <path id="Path_138" fill="#cdcccb" d="M210.648 265.281c3.6.873 12.184 3.38 11.815 2.642-.665-1.332-4.082-2.839-4.748-3.5s1.944-3.677 2.61-3.677 11.786-1.774 10.181-1.966c-14.281-1.7-24.113-4-24.778-4s1.554 3.389 1.554 4.5-4.071 2.8-4.071 2.8-8.171.578-9.372.568.885.9.885.9c.494.287 12.262.845 15.924 1.733z" data-name="Path 138" opacity="0.981" transform="translate(-186.644 -253.291)"/>
            <path id="Path_139" fill="#cccbca" d="M194.943 263.505c.5.3 11.761.679 15.493 1.584 3.668.889 12.363 3.579 11.987 2.827-.679-1.357-4.184-2.827-4.863-3.505s1.96-3.694 2.639-3.694 11.964-1.69 10.329-1.885c-14.551-1.733-23.9-4-24.577-4s1.659 3.392 1.659 4.523-4.071 2.789-4.071 2.789-8.182.473-9.406.463.81.898.81.898z" data-name="Path 139" transform="translate(-186.801 -253.328)"/>
        </g>
        <g id="Group_19" data-name="Group 19" transform="translate(160.64 165.36)">
            <g id="Group_8" data-name="Group 8" transform="translate(25.5 12.058)">
                <g id="Group_7" data-name="Group 7">
                    <path id="Path_140" d="M222.59 218.929a.891.891 0 0 1-.912.87.893.893 0 0 1-.895-.891l.243-24.407a.89.89 0 0 1 .913-.869.894.894 0 0 1 .895.891z" class="cls-57" data-name="Path 140" transform="translate(-220.632 -193.632)"/>
                    <path id="Path_141" fill="url(#linear-gradient)" d="M222.237 219.068a.892.892 0 0 1-.914.87.893.893 0 0 1-.894-.891l.243-24.406a.89.89 0 0 1 .913-.869.892.892 0 0 1 .9.89z" data-name="Path 141" transform="translate(-220.429 -193.712)"/>
                </g>
                <path id="Path_142" d="M220.948 198.113l-.036 3.229 1.8 1.483.136.01.042-4.6z" class="cls-59" data-name="Path 142" transform="translate(-220.706 -196.202)"/>
            </g>
            <g id="Group_9" data-name="Group 9" transform="translate(12.78)">
                <path id="Path_143" d="M231.367 207.131c-.278.292-.661 0-.942-.288l-39.285-39.961a.866.866 0 0 1-.125-1.121l.2-.212a.849.849 0 0 1 1.13.062l39.286 39.961a1.1 1.1 0 0 1-.161 1.423z" class="cls-57" data-name="Path 143" transform="translate(-190.75 -165.36)"/>
                <path id="Path_144" fill="url(#linear-gradient-2)" d="M231.117 207.5a.678.678 0 0 1-1-.035l-39.28-40.2a.892.892 0 0 1-.121-1.047l.1-.151a.508.508 0 0 1 .832-.083l39.524 40.316a.786.786 0 0 1 .07 1.058z" data-name="Path 144" transform="translate(-190.604 -165.613)"/>
            </g>
            <g id="Group_10" data-name="Group 10" transform="translate(20.101 27.005)">
                <path id="Path_145" fill="url(#linear-gradient-3)" d="M239.54 228.706a.9.9 0 0 1 1.109.665c.122.5-.051 1.259-.441 1.37l-31.449 8.706a.686.686 0 0 1-.938-.486l-.043-.053a1.2 1.2 0 0 1 .809-1.355z" data-name="Path 145" transform="translate(-207.773 -228.677)"/>
                <path id="Path_146" fill="url(#linear-gradient-4)" d="M239.675 229.545a.806.806 0 0 1 .925.695.886.886 0 0 1-.485 1.1l-31.4 8.977c-.39.112-.786-.2-.907-.7v-.01a.866.866 0 0 1 .465-1.09z" data-name="Path 146" transform="translate(-207.77 -229.161)"/>
            </g>
            <path id="Path_147" fill="url(#linear-gradient-5)" d="M271.923 258.49l-6.617 13.643a2.894 2.894 0 0 0 1.538 1.508l6.553-13.8a2.845 2.845 0 0 0-1.474-1.351z" data-name="Path 147" transform="translate(-220.665 -218.77)"/>
            <path id="Path_148" fill="url(#linear-gradient-6)" d="M189.325 260.337l9.789-9.678.1 1.513-7.168 7.428z" data-name="Path 148" transform="translate(-177.091 -214.279)"/>
            <path id="Path_149" d="M188.423 259.955l9.41-9.3-1.316.407-9.426 9.128z" class="cls-65" data-name="Path 149" transform="translate(-175.81 -214.279)"/>
            <path id="Path_150" fill="url(#linear-gradient-7)" d="M195.192 258.325l10.293-10.286.112 1.6-7.536 7.891z" data-name="Path 150" transform="translate(-180.455 -212.776)"/>
            <path id="Path_151" d="M194.238 257.917l9.893-9.878-1.388.438-9.912 9.7z" class="cls-65" data-name="Path 151" transform="translate(-179.102 -212.776)"/>
            <path id="Path_152" d="M198.948 254.9l2.457-2.41.913.158.118 1.828 5.271-5.528.221-2.108s-2.191.435-4.5 1.149a1.038 1.038 0 0 0-.522.385 1.28 1.28 0 0 0-.233.7 3.48 3.48 0 0 0 .006.378l-3.81 3.683z" class="cls-59" data-name="Path 152" transform="translate(-182.566 -212.09)"/>
            <path id="Path_153" fill="url(#linear-gradient-8)" d="M274.676 231.67l-5.348 9.621-.7-.458 5.626-9.959z" data-name="Path 153" transform="translate(-222.568 -202.933)"/>
            <path id="Path_154" fill="#efbe67" d="M270.722 231.3l-5.688 10.148c.289.566.6.2 1.211.241l5.944-10.739a7.187 7.187 0 0 0-1.467.35z" data-name="Path 154" transform="translate(-220.509 -202.976)"/>
            <g id="Group_13" data-name="Group 13" transform="translate(2.973 2.171)">
                <path id="Path_155" fill="#b2a5a3" d="M168.855 181.578c.74 1.067 6.247 12.09 7.315 13.958s6.906 14.135 16.357 16.713c1.234.444 7.646 2.248 12 1.8.9-.978-3.014-1.068-3.014-1.068s-13.1-5.092-16.139-9-14.548-21.069-15.288-22.225-1.231-.178-1.231-.178z" data-name="Path 155" transform="translate(-168.325 -176.61)"/>
                <g id="Group_12" data-name="Group 12">
                    <path id="Path_156" fill="url(#linear-gradient-9)" d="M178.916 170.45a3.928 3.928 0 0 1 1.339 1.294c.3.416.63.945 1.056 1.594 1.323 2.011 7.971 11.7 11.418 15.391s8.934 8.835 12.973 9.108a15.131 15.131 0 0 0 7.523-1.03c1.278-.566 1.619-.49 1.661-.084-.467.877-5.864 10.572-5.864 10.572s-15.129 3.349-25.564-6.9c-4.991-4.9-14.371-23.768-14.81-24.243s-1.036-1.039-1.036-1.039z" data-name="Path 156" transform="translate(-167.612 -170.45)"/>
                    <g id="Group_11" data-name="Group 11" transform="translate(1.722 .293)">
                        <path id="Path_157" fill="url(#linear-gradient-10)" d="M179.178 177.609a1.538 1.538 0 0 1 .1.163c.043.074 12.529 23.5 23.242 27.714 5.726 2.252 12.326.715 13.727.681a.833.833 0 0 1 .4.089c.016.015.305.244.456.4.189-.338.355-.652.551-1a4.135 4.135 0 0 0-.346-.359.852.852 0 0 0-.508-.206c-.152.01-8.366 1.876-13.9-.554-10.734-4.715-22.643-27.318-22.675-27.374a.863.863 0 0 0-.072-.1c-.035-.052-.809-.978-1.014-1.193l-1.078.446c.221.239 1.069 1.231 1.117 1.293z" data-name="Path 157" transform="translate(-175.33 -173.849)"/>
                        <path id="Path_158" fill="url(#linear-gradient-11)" d="M172.828 180.186c.129.183.349.556.441.732.48.928 12.6 24.406 22.981 28.118 8.293 2.963 13.853.822 15.089.889 0 0 .438.088.4.117.061 0 .256.239.388.369l.049.048c.177-.318.34-.621.557-1.009-.1-.1-.275-.314-.4-.415a.625.625 0 0 0-.4-.177c-1.506-.03-8.011 2.167-15.463-1.153-8.7-3.876-21.7-26.434-21.974-26.957-.134-.261-.445-.865-.554-1.028-.054-.081-.835-.838-1.172-1.179l-1.12.459c.404.364 1.117 1.1 1.178 1.186z" data-name="Path 158" transform="translate(-171.65 -175.383)"/>
                        <path id="Path_159" fill="url(#linear-gradient-12)" d="M185.3 174.827l.142.192.081.108a.525.525 0 0 0 .056.061l.01.018c.218.381 10.523 19.674 21.007 26.156 2.627 1.623 5.946 2.4 14.64 1.145.026 0 .271-.036.375.07a1.47 1.47 0 0 1 .273.262l.141.161.531-.957a3.478 3.478 0 0 0-.388-.425.558.558 0 0 0-.4-.157c-.145.009-8.676 2.123-14.184-.811-10.026-5.34-20.79-25.488-21.094-26.021a1.081 1.081 0 0 0-.141-.2.4.4 0 0 0-.032-.035l-.2-.272c-.156-.212-.371-.5-.59-.8l-1.026.424c.125.166.257.343.381.511.154.215.302.416.418.57z" data-name="Path 159" transform="translate(-179.017 -172.39)"/>
                        <path id="Path_160" fill="url(#linear-gradient-13)" d="M191.029 172.555l.177.214a.732.732 0 0 0 .054.059.313.313 0 0 1 .056.07l.038.062c.224.354 11.472 20.746 20.843 25.6 3.211 1.668 7.213 1.481 9.828 1.163 1.446-.176 2.484-.488 3.673-.672a.589.589 0 0 1 .412.052c.174.145.292.247.427.354.159-.288.31-.561.45-.811-.113-.09-.27-.254-.4-.366a.467.467 0 0 0-.373-.112c-.127.006-2.423.571-4.2.789-2.76.337-5.964.484-8.714-.929-9.919-5.1-19.783-23.412-20.314-24.226l-.646-.989-.189-.292-.054-.084-.014-.024v-.005a1.133 1.133 0 0 0-.147-.2l-.049-.052c-.031-.04-.09-.111-.177-.215-.169-.2-.429-.515-.666-.8l-.874.361c.159.195.345.419.517.627.118.159.244.31.342.426z" data-name="Path 160" transform="translate(-182.261 -171.136)"/>
                    </g>
                    <path id="Path_161" fill="#fff" d="M168.742 176.262l11.378-4.667s-.885-1.113-1.2-1.144c-1.306.481-11.3 4.668-11.3 4.668z" data-name="Path 161" transform="translate(-167.612 -170.45)" style="mix-blend-mode:overlay;isolation:isolate" opacity="0.8"/>
                    <path id="Path_162" fill="#fff" d="M262.7 242.055l6.063-10.634s.082-.2-.313.024-6.125 10.578-6.125 10.578z" data-name="Path 162" transform="translate(-221.929 -205.369)" style="mix-blend-mode:overlay;isolation:isolate" opacity="0.68"/>
                </g>
            </g>
            <g id="Group_14" data-name="Group 14" transform="translate(9.692 37.501)">
                <path id="Path_163" fill="#e5b24c" d="M219.5 253.31a1.014 1.014 0 0 1 1.216.8c.115.562-.112 1.409-.554 1.515l-35.662 8.184a.907.907 0 0 1-1.061-.757l-.006-.059a1.363 1.363 0 0 1 .956-1.318z" data-name="Path 163" transform="translate(-183.394 -253.287)"/>
                <path id="Path_164" fill="url(#linear-gradient-14)" d="M219.608 254.258a.915.915 0 0 1 1.01.828.99.99 0 0 1-.592 1.21l-35.626 8.488a.916.916 0 0 1-1.009-.827.988.988 0 0 1 .592-1.209z" data-name="Path 164" transform="translate(-183.365 -253.834)"/>
            </g>
            <g id="Group_15" data-name="Group 15" transform="translate(1.568 .753)">
                <path id="Path_165" fill="#f2c679" d="M177.434 168.091l-12.062 4.923-1.056-1.141 11.971-4.747z" data-name="Path 165" transform="translate(-164.316 -167.126)"/>
                <path id="Path_166" fill="#9e4102" d="M178.513 169.367l-12.3 5.018.085.3 12.259-5.042z" data-name="Path 166" transform="translate(-165.404 -168.411)"/>
            </g>
            <path id="Path_167" d="M194.091 269.831l-2.867.671.146-2.726-1.315-.3 1.881-1.8 1.945-.217z" class="cls-59" data-name="Path 167" transform="translate(-177.509 -222.769)"/>
            <path id="Path_168" d="M271.417 249l1.191-1.808 1.007 1.015-.4.377-.705 1.5z" class="cls-59" data-name="Path 168" transform="translate(-224.17 -212.289)"/>
            <path id="Path_169" d="M234.557 262.873l-2.3-2.013-3.171.748 1.073.218 1.341 1.774z" class="cls-59" data-name="Path 169" transform="translate(-199.891 -220.128)"/>
            <g id="Group_16" data-name="Group 16" transform="translate(0 5.043)">
                <path id="Path_170" d="M207.767 227.721c-.318.351-.761-.009-1.085-.353l-45.424-48.356a1.083 1.083 0 0 1-.15-1.351l.23-.253a.948.948 0 0 1 1.3.081l45.423 48.356a1.366 1.366 0 0 1-.176 1.712z" class="cls-57" data-name="Path 170" transform="translate(-160.807 -177.185)"/>
                <path id="Path_171" fill="url(#linear-gradient-15)" d="M207.482 228.16a.758.758 0 0 1-1.146-.048l-45.419-48.646a1.118 1.118 0 0 1-.144-1.262l.108-.181a.569.569 0 0 1 .956-.094l45.7 48.793a.978.978 0 0 1 .088 1.275z" data-name="Path 171" transform="translate(-160.64 -177.487)"/>
            </g>
            <g id="Group_18" data-name="Group 18" transform="translate(13.574 20.407)">
                <path id="Path_172" d="M195.594 238.434a.9.9 0 0 1-.869.92.887.887 0 0 1-.937-.84l-.933-24.387a.9.9 0 0 1 .869-.92.886.886 0 0 1 .937.839z" class="cls-57" data-name="Path 172" transform="translate(-192.688 -213.207)"/>
                <path id="Path_173" fill="url(#linear-gradient-16)" d="M195.208 238.955a.9.9 0 0 1-.869.919.883.883 0 0 1-.937-.838l-.934-24.388a.9.9 0 0 1 .87-.919.885.885 0 0 1 .937.839z" data-name="Path 173" transform="translate(-192.467 -213.506)"/>
                <g id="Group_17" data-name="Group 17" transform="translate(.724 .853)">
                    <path id="Path_174" d="M194.531 215.4a.183.183 0 1 1-.183-.2.19.19 0 0 1 .183.2z" class="cls-57" data-name="Path 174" transform="translate(-194.165 -215.206)"/>
                    <path id="Path_175" fill="#bc7331" d="M194.542 215.373a.156.156 0 1 1-.311 0 .156.156 0 1 1 .311 0z" data-name="Path 175" transform="translate(-194.203 -215.206)"/>
                </g>
            </g>
        </g>
    </g>
</svg>
