<svg xmlns="http://www.w3.org/2000/svg" width="24" height="24" viewBox="0 0 24 24">
    <g transform="translate(-24 -401)">
        <path fill="none" d="M0 0H24V24H0z" transform="translate(24 401)"/>
        <path fill="#a8b1c1" d="M13 15.5a1.75 1.75 0 1 0-1.75-1.75A1.755 1.755 0 0 0 13 15.5zm5.25-7.875h-.875v-1.75a4.375 4.375 0 0 0-8.75 0h1.663a2.712 2.712 0 1 1 5.425 0v1.75H7.75A1.755 1.755 0 0 0 6 9.375v8.75a1.755 1.755 0 0 0 1.75 1.75h10.5a1.755 1.755 0 0 0 1.75-1.75v-8.75a1.755 1.755 0 0 0-1.75-1.75z" transform="translate(23 402.5)"/>
        <circle cx="2.5" cy="2.5" r="2.5" fill="#fff" transform="translate(33.5 414)"/>
    </g>
</svg>
